# xmcd
#
# Track frame offsets:
#	150
#	24710
#	46457
#	66802
#	93080
#	114255
#	138162
#	158682
#	189992
#	215090
#
# Disc length: 3372 seconds
#
# Revision: 1
# Processed by: cddbd v1.4PL0 Copyright (c) Steve Scherf et al.
# Submitted via: EasyCDDAExtractor 5.0.7
#
DISCID=800d2a0a
DTITLE=Duc Huy - Duong Xa Uoc Mua
DYEAR=1900
DGENRE=Vietnamese
TTITLE0=Em Di
TTITLE1=Ao Lua Ha Dong
TTITLE2=Em Toi
TTITLE3=Duong Xa Uot Mua
TTITLE4=Khoc Mot Dong Song
TTITLE5=Yeu Em Dai Lau
TTITLE6=Lam Sao Toi Biet
TTITLE7=Mua Dong Sap Den
TTITLE8=Tinh Yeu Lan Cuoi
TTITLE9=Do Quynh Huong
EXTD=
EXTT0=
EXTT1=
EXTT2=
EXTT3=
EXTT4=
EXTT5=
EXTT6=
EXTT7=
EXTT8=
EXTT9=
PLAYORDER=
